<?xml version="1.0" encoding="UTF-8" standalone="no" ?>
<!DOCTYPE svg PUBLIC "-//W3C//DTD SVG 1.1//EN" "http://www.w3.org/Graphics/SVG/1.1/DTD/svg11.dtd">
<svg xmlns="http://www.w3.org/2000/svg" xmlns:xlink="http://www.w3.org/1999/xlink" version="1.1" width="400" height="400" viewBox="0 0 400 400" xml:space="preserve">
<desc>Created with Fabric.js 3.6.2</desc>
<defs>
</defs>
<g transform="matrix(9.09 0 0 9.09 200 200)" id="path929"  >
<path style="stroke: none; stroke-width: 1.99999988; stroke-dasharray: none; stroke-linecap: round; stroke-dashoffset: 0; stroke-linejoin: round; stroke-miterlimit: 4; fill: rgb(0,0,0); fill-rule: nonzero; opacity: 1;" vector-effect="non-scaling-stroke"  paint-order="stroke"  transform=" translate(-16, -15.99)" d="m 15.996094 0.99609375 c -6.0632836 0 -10.9980445 4.93673065 -10.9980471 11.00000025 c -0.0000038 10.668737 10.3789061 18.779297 10.3789061 18.779297 c 0.364612 0.290384 0.881482 0.290384 1.246094 0 c 0 0 10.380882 -8.11056 10.380859 -18.779297 C 27.003893 5.9328244 22.059377 0.99609375 15.996094 0.99609375 Z m 0 6.00195315 c 2.749573 0 5.00585 2.2484784 5.005859 4.9980471 C 21.001971 14.7457 18.745685 17 15.996094 17 c -2.749591 0 -4.998064 -2.2543 -4.998047 -5.003906 c 0.000009 -2.7495687 2.248474 -4.9980471 4.998047 -4.9980471 z" stroke-linecap="round" />
</g>
</svg>